<svg width="164" height="38" viewBox="0 0 164 38" fill="none" xmlns="http://www.w3.org/2000/svg">
<g filter="url(#filter0_dd_103_111)">
<path d="M27.0001 2.1001H11.0001C6.63705 2.1001 3.1001 5.63705 3.1001 10.0001V26.0001C3.1001 30.3631 6.63705 33.9001 11.0001 33.9001H27.0001C31.3631 33.9001 34.9001 30.3631 34.9001 26.0001V10.0001C34.9001 5.63705 31.3631 2.1001 27.0001 2.1001Z" fill="white"/>
<path d="M27.0001 2.1001H11.0001C6.63705 2.1001 3.1001 5.63705 3.1001 10.0001V26.0001C3.1001 30.3631 6.63705 33.9001 11.0001 33.9001H27.0001C31.3631 33.9001 34.9001 30.3631 34.9001 26.0001V10.0001C34.9001 5.63705 31.3631 2.1001 27.0001 2.1001Z" fill="url(#paint0_linear_103_111)"/>
<path d="M27.0001 2.1001H11.0001C6.63705 2.1001 3.1001 5.63705 3.1001 10.0001V26.0001C3.1001 30.3631 6.63705 33.9001 11.0001 33.9001H27.0001C31.3631 33.9001 34.9001 30.3631 34.9001 26.0001V10.0001C34.9001 5.63705 31.3631 2.1001 27.0001 2.1001Z" stroke="#D0D5DD" stroke-width="0.2"/>
<path d="M18.3546 13.1827C22.7105 11.4503 27.4742 12.8184 29.6373 14.9132C30.106 15.3671 30.5041 15.8275 30.845 16.2851C31.0394 15.2107 31.0552 14.1405 30.8681 13.1055C30.1847 9.32649 26.6195 7.18561 23.4233 8.29149C20.2415 9.3924 19.0005 11.5321 19.0005 11.5321C19.0005 11.5321 17.7595 9.3924 14.5777 8.29149C11.3812 7.18561 7.81603 9.32672 7.1328 13.1055C6.62842 15.8944 7.58356 18.9391 9.61033 21.6298C10.0372 21.7732 10.4847 21.8809 10.9586 21.943C13.7978 22.3163 14.8184 21.557 16.0178 21.0486C16.8142 20.7112 17.4134 21.0942 17.3843 21.3626C17.3392 21.7786 15.7693 22.4895 16.106 22.6388C17.4351 23.2284 19.0718 23.2334 20.3053 22.18C21.838 20.8712 22.4114 21.7658 22.4114 21.7658C22.4114 21.7658 21.6502 23.7076 19.3581 24.6717C17.4457 25.4761 15.4419 25.6743 13.6107 25.4683C15.19 26.5846 17.0035 27.5204 19.0005 28.1882C24.7099 26.2784 28.9276 22.1871 30.4145 17.9096C29.4072 16.9157 28.1716 16.2995 26.6988 16.0763C23.8674 15.647 22.8322 16.3862 21.6228 16.8708C20.8198 17.1926 20.2285 16.7978 20.263 16.5299C20.3161 16.1148 21.8999 15.4351 21.5661 15.279C20.249 14.6633 18.6125 14.626 17.3585 15.6548C15.8003 16.9332 15.2446 16.0274 15.2446 16.0274C15.2446 16.0274 16.0438 14.1015 18.3546 13.1827ZM17.2709 18.5051H18.3709V17.4052H19.6296V18.5051H20.7296V19.7639H19.6296V20.8638H18.3709V19.7639H17.2709V18.5051Z" fill="url(#paint1_linear_103_111)"/>
<path d="M17.2709 18.5052H18.3709V17.4052H19.6296V18.5052H20.7295V19.7639H19.6378C21.2597 20.5834 24.2383 21.8027 27.8177 22.3451C28.9956 20.9517 29.8813 19.4428 30.4143 17.9096C29.4069 16.9157 28.1713 16.2996 26.6986 16.0763C23.8672 15.647 22.8319 16.3863 21.6226 16.8708C20.8196 17.1926 20.2282 16.7978 20.2627 16.5299C20.3159 16.1148 21.8997 15.4351 21.5659 15.279C20.2488 14.6633 18.6123 14.626 17.3583 15.6548C15.8 16.9332 15.2443 16.0274 15.2443 16.0274C15.2443 16.0274 16.0438 14.1013 18.3543 13.1823C22.7102 11.4499 27.4739 12.818 29.637 14.9128C30.1057 15.3666 30.5038 15.8271 30.8447 16.2847C31.0392 15.2102 31.055 14.14 30.8679 13.105C30.1844 9.326 26.6192 7.18512 23.423 8.291C20.2412 9.39191 19.0002 11.5316 19.0002 11.5316C19.0002 11.5316 17.7592 9.39191 14.5774 8.291C12.7519 7.65927 10.8067 8.0883 9.34619 9.27521C10.0323 10.7442 10.836 12.1168 13.1254 14.8773C14.9868 17.1222 17.2709 18.5052 17.2709 18.5052Z" fill="url(#paint2_linear_103_111)"/>
<path opacity="0.31" d="M27.277 9.64955C24.2712 8.13945 21.169 10.4891 20.1851 11.7299C21.882 11.3725 23.3668 11.1891 25.2457 11.5839C28.0252 12.1679 29.0654 13.1715 30.3064 14.6542C30.0871 11.9069 28.3519 10.1896 27.277 9.64955Z" fill="url(#paint3_linear_103_111)"/>
</g>
<path d="M45.4538 10.2727H49.8153L54.4219 21.5114H54.6179L59.2244 10.2727H63.5859V27H60.1555V16.1126H60.0167L55.6879 26.9183H53.3519L49.0231 16.0717H48.8842V27H45.4538V10.2727ZM72.1517 27.245C70.8612 27.245 69.7504 26.9837 68.8193 26.4609C67.8937 25.9328 67.1804 25.1868 66.6794 24.223C66.1785 23.2538 65.928 22.1076 65.928 20.7844C65.928 19.494 66.1785 18.3614 66.6794 17.3867C67.1804 16.4121 67.8855 15.6525 68.7948 15.108C69.7096 14.5634 70.7823 14.2912 72.0129 14.2912C72.8405 14.2912 73.611 14.4246 74.3243 14.6914C75.0431 14.9528 75.6692 15.3475 76.2029 15.8757C76.7419 16.4039 77.1612 17.0682 77.4607 17.8686C77.7602 18.6636 77.9099 19.5947 77.9099 20.6619V21.6175H67.3165V19.4613H74.6347C74.6347 18.9603 74.5258 18.5166 74.308 18.13C74.0902 17.7434 73.788 17.4412 73.4014 17.2234C73.0202 17.0001 72.5764 16.8885 72.07 16.8885C71.5419 16.8885 71.0736 17.011 70.6652 17.256C70.2623 17.4956 69.9465 17.8196 69.7178 18.228C69.4891 18.6309 69.372 19.0801 69.3666 19.5756V21.6257C69.3666 22.2464 69.4809 22.7828 69.7096 23.2347C69.9437 23.6867 70.2732 24.0352 70.6979 24.2802C71.1226 24.5252 71.6263 24.6477 72.2089 24.6477C72.5955 24.6477 72.9494 24.5933 73.2707 24.4844C73.5919 24.3755 73.8669 24.2121 74.0956 23.9943C74.3243 23.7765 74.4986 23.5097 74.6183 23.1939L77.8364 23.4062C77.673 24.1795 77.3382 24.8546 76.8318 25.4318C76.3308 26.0036 75.6829 26.45 74.8879 26.7713C74.0983 27.0871 73.1863 27.245 72.1517 27.245ZM84.8034 27.2042C83.8505 27.2042 82.9874 26.9592 82.2142 26.4691C81.4465 25.9736 80.8366 25.2467 80.3847 24.2884C79.9382 23.3246 79.7149 22.143 79.7149 20.7436C79.7149 19.3061 79.9463 18.1109 80.4092 17.158C80.872 16.1997 81.4873 15.4837 82.2551 15.0099C83.0283 14.5308 83.875 14.2912 84.7952 14.2912C85.4976 14.2912 86.0829 14.411 86.5512 14.6506C87.0249 14.8847 87.4061 15.1787 87.6947 15.5327C87.9887 15.8812 88.212 16.2242 88.3644 16.5618H88.4706V10.2727H91.9419V27H88.5115V24.9908H88.3644C88.2011 25.3393 87.9697 25.685 87.6702 26.0281C87.3762 26.3656 86.9923 26.6461 86.5186 26.8693C86.0503 27.0926 85.4785 27.2042 84.8034 27.2042ZM85.906 24.4354C86.4668 24.4354 86.9405 24.2829 87.3271 23.978C87.7192 23.6676 88.0187 23.2347 88.2256 22.6793C88.4379 22.1239 88.5441 21.4732 88.5441 20.7273C88.5441 19.9813 88.4407 19.3333 88.2338 18.7834C88.0268 18.2334 87.7274 17.8087 87.3353 17.5092C86.9433 17.2098 86.4668 17.06 85.906 17.06C85.3343 17.06 84.8524 17.2152 84.4603 17.5256C84.0683 17.8359 83.7715 18.2661 83.57 18.8161C83.3686 19.366 83.2678 20.0031 83.2678 20.7273C83.2678 21.4569 83.3686 22.1022 83.57 22.663C83.777 23.2184 84.0737 23.654 84.4603 23.9698C84.8524 24.2802 85.3343 24.4354 85.906 24.4354ZM94.8026 27V14.4545H98.282V27H94.8026ZM96.5504 12.8374C96.0331 12.8374 95.5894 12.6658 95.2191 12.3228C94.8543 11.9743 94.6719 11.5578 94.6719 11.0732C94.6719 10.594 94.8543 10.1829 95.2191 9.83984C95.5894 9.49136 96.0331 9.31712 96.5504 9.31712C97.0677 9.31712 97.5088 9.49136 97.8736 9.83984C98.2438 10.1829 98.429 10.594 98.429 11.0732C98.429 11.5578 98.2438 11.9743 97.8736 12.3228C97.5088 12.6658 97.0677 12.8374 96.5504 12.8374ZM106.737 27.245C105.452 27.245 104.347 26.9728 103.421 26.4283C102.501 25.8783 101.793 25.116 101.298 24.1413C100.808 23.1667 100.563 22.045 100.563 20.7763C100.563 19.4912 100.811 18.3641 101.306 17.3949C101.807 16.4202 102.518 15.6606 103.438 15.1161C104.358 14.5662 105.452 14.2912 106.721 14.2912C107.816 14.2912 108.774 14.4899 109.596 14.8874C110.418 15.2849 111.069 15.843 111.548 16.5618C112.027 17.2805 112.291 18.1245 112.34 19.0938H109.057C108.965 18.4676 108.719 17.9639 108.322 17.5827C107.93 17.1961 107.415 17.0028 106.778 17.0028C106.239 17.0028 105.768 17.1499 105.365 17.4439C104.968 17.7325 104.657 18.1545 104.434 18.7099C104.211 19.2653 104.099 19.9377 104.099 20.7273C104.099 21.5277 104.208 22.2083 104.426 22.7692C104.649 23.33 104.962 23.7575 105.365 24.0515C105.768 24.3455 106.239 24.4925 106.778 24.4925C107.176 24.4925 107.532 24.4109 107.848 24.2475C108.17 24.0842 108.434 23.8473 108.641 23.5369C108.853 23.2211 108.992 22.8427 109.057 22.4016H112.34C112.286 23.36 112.025 24.204 111.556 24.9336C111.094 25.6578 110.454 26.2241 109.637 26.6325C108.82 27.0408 107.854 27.245 106.737 27.245ZM117.517 27H113.727L119.501 10.2727H124.059L129.825 27H126.036L121.846 14.0952H121.715L117.517 27ZM117.28 20.4251H126.232V23.1857H117.28V20.4251ZM131.773 31.7045V14.4545H135.204V16.5618H135.359C135.511 16.2242 135.732 15.8812 136.02 15.5327C136.314 15.1787 136.696 14.8847 137.164 14.6506C137.638 14.411 138.226 14.2912 138.928 14.2912C139.843 14.2912 140.687 14.5308 141.46 15.0099C142.233 15.4837 142.851 16.1997 143.314 17.158C143.777 18.1109 144.008 19.3061 144.008 20.7436C144.008 22.143 143.782 23.3246 143.33 24.2884C142.884 25.2467 142.274 25.9736 141.501 26.4691C140.733 26.9592 139.873 27.2042 138.92 27.2042C138.245 27.2042 137.67 27.0926 137.197 26.8693C136.728 26.6461 136.344 26.3656 136.045 26.0281C135.745 25.685 135.517 25.3393 135.359 24.9908H135.253V31.7045H131.773ZM135.179 20.7273C135.179 21.4732 135.283 22.1239 135.49 22.6793C135.696 23.2347 135.996 23.6676 136.388 23.978C136.78 24.2829 137.256 24.4354 137.817 24.4354C138.384 24.4354 138.863 24.2802 139.255 23.9698C139.647 23.654 139.944 23.2184 140.145 22.663C140.352 22.1022 140.455 21.4569 140.455 20.7273C140.455 20.0031 140.355 19.366 140.153 18.8161C139.952 18.2661 139.655 17.8359 139.263 17.5256C138.871 17.2152 138.389 17.06 137.817 17.06C137.251 17.06 136.772 17.2098 136.38 17.5092C135.993 17.8087 135.696 18.2334 135.49 18.7834C135.283 19.3333 135.179 19.9813 135.179 20.7273ZM146.328 31.7045V14.4545H149.758V16.5618H149.914C150.066 16.2242 150.287 15.8812 150.575 15.5327C150.869 15.1787 151.25 14.8847 151.719 14.6506C152.192 14.411 152.78 14.2912 153.483 14.2912C154.398 14.2912 155.242 14.5308 156.015 15.0099C156.788 15.4837 157.406 16.1997 157.869 17.158C158.332 18.1109 158.563 19.3061 158.563 20.7436C158.563 22.143 158.337 23.3246 157.885 24.2884C157.439 25.2467 156.829 25.9736 156.056 26.4691C155.288 26.9592 154.427 27.2042 153.475 27.2042C152.799 27.2042 152.225 27.0926 151.751 26.8693C151.283 26.6461 150.899 26.3656 150.6 26.0281C150.3 25.685 150.071 25.3393 149.914 24.9908H149.807V31.7045H146.328ZM149.734 20.7273C149.734 21.4732 149.837 22.1239 150.044 22.6793C150.251 23.2347 150.551 23.6676 150.943 23.978C151.335 24.2829 151.811 24.4354 152.372 24.4354C152.938 24.4354 153.417 24.2802 153.809 23.9698C154.202 23.654 154.498 23.2184 154.7 22.663C154.907 22.1022 155.01 21.4569 155.01 20.7273C155.01 20.0031 154.909 19.366 154.708 18.8161C154.506 18.2661 154.21 17.8359 153.818 17.5256C153.426 17.2152 152.944 17.06 152.372 17.06C151.806 17.06 151.327 17.2098 150.934 17.5092C150.548 17.8087 150.251 18.2334 150.044 18.7834C149.837 19.3333 149.734 19.9813 149.734 20.7273Z" fill="white"/>
<defs>
<filter id="filter0_dd_103_111" x="0" y="0" width="38" height="38" filterUnits="userSpaceOnUse" color-interpolation-filters="sRGB">
<feFlood flood-opacity="0" result="BackgroundImageFix"/>
<feColorMatrix in="SourceAlpha" type="matrix" values="0 0 0 0 0 0 0 0 0 0 0 0 0 0 0 0 0 0 127 0" result="hardAlpha"/>
<feOffset dy="1"/>
<feGaussianBlur stdDeviation="1"/>
<feColorMatrix type="matrix" values="0 0 0 0 0.0627451 0 0 0 0 0.0941176 0 0 0 0 0.156863 0 0 0 0.06 0"/>
<feBlend mode="normal" in2="BackgroundImageFix" result="effect1_dropShadow_103_111"/>
<feColorMatrix in="SourceAlpha" type="matrix" values="0 0 0 0 0 0 0 0 0 0 0 0 0 0 0 0 0 0 127 0" result="hardAlpha"/>
<feOffset dy="1"/>
<feGaussianBlur stdDeviation="1.5"/>
<feColorMatrix type="matrix" values="0 0 0 0 0.0627451 0 0 0 0 0.0941176 0 0 0 0 0.156863 0 0 0 0.1 0"/>
<feBlend mode="normal" in2="effect1_dropShadow_103_111" result="effect2_dropShadow_103_111"/>
<feBlend mode="normal" in="SourceGraphic" in2="effect2_dropShadow_103_111" result="shape"/>
</filter>
<linearGradient id="paint0_linear_103_111" x1="19.0001" y1="2.0001" x2="19.0001" y2="34.0001" gradientUnits="userSpaceOnUse">
<stop stop-color="white"/>
<stop offset="1" stop-color="#D0D5DD"/>
</linearGradient>
<linearGradient id="paint1_linear_103_111" x1="10.1989" y1="24.2137" x2="27.8347" y2="6.57791" gradientUnits="userSpaceOnUse">
<stop stop-color="#0076C1"/>
<stop offset="0.0737" stop-color="#0B82C6"/>
<stop offset="0.2766" stop-color="#269ED3"/>
<stop offset="0.4546" stop-color="#36AFDA"/>
<stop offset="0.587" stop-color="#3CB5DD"/>
</linearGradient>
<linearGradient id="paint2_linear_103_111" x1="10.1388" y1="24.2537" x2="27.8274" y2="6.56509" gradientUnits="userSpaceOnUse">
<stop stop-color="#00A482"/>
<stop offset="1" stop-color="#79DD83"/>
</linearGradient>
<linearGradient id="paint3_linear_103_111" x1="24.8608" y1="13.5073" x2="28.5288" y2="10.1132" gradientUnits="userSpaceOnUse">
<stop stop-color="#00A482"/>
<stop offset="1" stop-color="#79DD83"/>
</linearGradient>
</defs>
</svg>
